<svg width="506" height="400" viewBox="0 0 506 400" fill="none" xmlns="http://www.w3.org/2000/svg">
<g opacity="0.2">
<circle cx="126.5" cy="126.25" r="125.75" stroke="#B0D6CE"/>
<circle cx="126.5" cy="378.75" r="125.75" stroke="#B0D6CE"/>
<circle cx="379" cy="126.25" r="125.75" stroke="#B0D6CE"/>
<circle cx="379" cy="378.75" r="125.75" stroke="#B0D6CE"/>
<path d="M242.498 118.718C248.841 115.056 256.656 115.056 262.998 118.718L363.483 176.732C369.825 180.394 373.733 187.162 373.733 194.486V310.515C373.733 317.839 369.825 324.607 363.483 328.268L262.998 386.283C256.656 389.945 248.841 389.945 242.498 386.283L142.014 328.268C135.672 324.607 131.764 317.839 131.764 310.515V194.486C131.764 187.162 135.672 180.394 142.014 176.732L242.498 118.718Z" stroke="#B0D6CE"/>
</g>
</svg>
