<svg width="352" height="382" viewBox="0 0 352 382" fill="none" xmlns="http://www.w3.org/2000/svg">
<g opacity="0.2">
<path d="M320.48 73.3511L320.524 73.3943L320.577 73.4256C339.039 84.3806 351.346 104.464 351.5 127.286V254.564C351.5 277.985 338.586 298.37 319.511 309.33L319.215 309.476L319.201 309.483L319.188 309.491L207.852 373.131C198.467 378.456 187.542 381.5 176 381.5C164.304 381.5 153.534 378.457 144.148 373.131L32.6567 309.49L32.6496 309.486L31.271 308.729C31.2682 308.728 31.2655 308.726 31.2627 308.724C12.8011 297.614 0.5 277.685 0.5 254.718V127.436C0.5 104.666 12.7525 84.6193 30.9983 73.4956H31.0132H31.1447L31.2592 73.4309L33.4301 72.2041L33.4318 72.2032L142.908 9.78882L142.923 9.78081L142.936 9.7719L143.391 9.47174L144.924 8.56204C144.925 8.56132 144.927 8.5606 144.928 8.55988C153.999 3.39095 164.612 0.5 176 0.5C187.388 0.5 198.002 3.3909 207.231 8.56227C207.232 8.56278 207.233 8.5633 207.234 8.56381L209.089 9.63421L209.091 9.6354L317.934 71.7349L318.385 72.0328L318.393 72.0378L318.401 72.0425L320.367 73.2389L320.48 73.3511ZM178.361 339.061C178.361 259.139 244.191 193.723 325.02 193.417H325.639C326.295 193.417 326.925 193.186 327.376 192.765C327.828 192.343 328.088 191.736 327.999 191.041C327.979 189.879 327.008 188.736 325.639 188.736C244.345 188.736 178.361 123.321 178.361 43.0919C178.361 41.9176 177.383 40.7517 176 40.7517C174.826 40.7517 173.639 41.7107 173.639 43.0919C173.639 123.015 107.809 188.431 26.9796 188.736H26.3612C25.1874 188.736 24.0004 189.695 24.0004 191.077C24.0004 192.251 24.9782 193.417 26.3612 193.417C107.191 193.417 173.33 258.528 173.639 338.45V339.061C173.639 340.236 174.617 341.402 176 341.402C177.174 341.402 178.361 340.443 178.361 339.061Z" stroke="#173B3F"/>
</g>
</svg>
